<?xml version="1.0" standalone="no"?>
<!DOCTYPE svg PUBLIC "-//W3C//DTD SVG 20010904//EN"
 "http://www.w3.org/TR/2001/REC-SVG-20010904/DTD/svg10.dtd">
<svg version="1.0" xmlns="http://www.w3.org/2000/svg"
 width="640.000000pt" height="640.000000pt" viewBox="0 0 640.000000 640.000000"
 preserveAspectRatio="xMidYMid meet">

<g transform="translate(0.000000,640.000000) scale(0.100000,-0.100000)"
fill="#000000" stroke="none">
<path d="M0 3200 l0 -3200 750 0 750 0 0 1213 c0 1164 1 1215 18 1230 17 16
111 17 1161 17 629 0 1147 -3 1153 -6 38 -24 38 -32 38 -1264 l0 -1190 1265 0
1265 0 0 3200 0 3200 -3200 0 -3200 0 0 -3200z m4850 1451 c5 -11 10 -42 10
-70 0 -83 6 -82 -286 -79 -214 3 -256 5 -264 18 -13 20 -13 92 0 124 l10 26
259 0 c247 0 261 -1 271 -19z m-3237 -18 c2 -5 0 -23 -5 -41 -8 -28 -13 -33
-36 -30 -30 3 -45 38 -17 38 9 0 13 -5 9 -11 -4 -7 -1 -10 7 -7 8 2 15 17 17
31 3 26 16 36 25 20z m55 -10 c-23 -6 -24 -43 -1 -43 13 0 14 -3 6 -11 -19
-19 -43 -2 -43 31 0 26 3 30 28 29 16 -1 20 -3 10 -6z m62 -15 c27 4 30 2 29
-24 l0 -29 -11 25 c-9 20 -12 22 -15 8 -2 -9 -13 -16 -24 -15 -15 1 -19 8 -18
32 1 16 3 23 6 14 3 -11 12 -14 33 -11z m237 -15 c-3 -10 -5 -4 -5 12 0 17 2
24 5 18 2 -7 2 -21 0 -30z m398 27 c3 -5 2 -10 -4 -10 -5 0 -12 -8 -14 -17 -3
-11 -5 -7 -6 10 -1 27 12 36 24 17z m380 -6 c29 -19 33 -44 8 -43 -11 0 -13 3
-5 6 18 7 15 21 -5 25 -10 2 -23 -5 -30 -17 -11 -18 -11 -17 -8 10 2 17 4 31
4 33 2 5 13 1 36 -14z m505 12 c0 -2 -7 -7 -16 -10 -8 -3 -12 -2 -9 4 6 10 25
14 25 6z m525 -9 c-18 -14 -14 -37 7 -37 6 0 20 7 30 17 17 15 18 15 18 -3 0
-27 -64 -33 -74 -8 -7 18 9 44 27 44 6 0 3 -6 -8 -13z m-1740 -37 c7 0 15 7
19 15 6 17 36 21 36 4 0 -5 -5 -7 -10 -4 -6 3 -13 -1 -16 -9 -8 -21 -43 -21
-51 0 -4 12 -7 13 -14 3 -4 -8 -12 -10 -16 -5 -4 4 1 14 12 22 18 14 20 13 23
-5 2 -12 9 -21 17 -21z m418 26 c12 4 17 1 17 -12 0 -16 -2 -17 -10 -4 -8 13
-11 12 -16 -6 -5 -18 -10 -21 -32 -15 -25 7 -39 32 -17 30 6 -1 9 -5 8 -10 -2
-5 2 -9 7 -9 6 0 10 10 10 23 0 15 3 18 8 9 5 -7 16 -10 25 -6z m514 -12 c3
-8 10 -14 15 -14 6 0 7 7 4 16 -4 10 -1 14 6 12 7 -3 14 -12 16 -21 4 -20 -33
-24 -45 -4 -11 17 -37 15 -45 -3 -4 -10 -7 -6 -7 11 -1 23 2 26 25 21 14 -2
28 -11 31 -18z m1030 -11 c-3 -10 -5 -4 -5 12 0 17 2 24 5 18 2 -7 2 -21 0
-30z m43 19 c0 -12 -3 -12 -15 -2 -8 7 -15 13 -15 15 0 1 7 2 15 2 8 0 15 -7
15 -15z m-1910 -12 c0 -11 -7 -20 -15 -20 -15 0 -21 21 -8 33 12 13 23 7 23
-13z m370 5 c0 -8 -2 -15 -4 -15 -2 0 -6 7 -10 15 -3 8 -1 15 4 15 6 0 10 -7
10 -15z m330 -3 c0 -14 2 -15 10 -2 5 8 10 11 10 5 0 -5 4 -4 9 3 6 11 9 9 13
-6 5 -17 1 -20 -19 -18 -14 2 -29 9 -34 17 -7 12 -10 12 -18 1 -7 -11 -9 -11
-13 0 -4 9 2 14 18 16 17 1 24 -3 24 -16z m70 8 c0 -5 -5 -10 -11 -10 -5 0 -7
5 -4 10 3 6 8 10 11 10 2 0 4 -4 4 -10z m412 -22 c-9 -9 -12 -7 -12 12 0 19 3
21 12 12 9 -9 9 -15 0 -24z m71 12 c3 -11 1 -20 -4 -20 -5 0 -9 7 -9 15 0 18
-26 20 -33 3 -3 -8 -6 -6 -6 5 -1 25 45 23 52 -3z m24 -12 c-3 -7 -5 -2 -5 12
0 14 2 19 5 13 2 -7 2 -19 0 -25z m73 17 c0 -8 5 -15 12 -15 6 0 3 -7 -8 -15
-10 -8 -23 -14 -29 -15 -5 0 -3 5 5 10 11 7 11 10 2 10 -7 0 -10 5 -6 11 3 6
0 15 -7 20 -10 6 -8 9 9 9 13 0 22 -6 22 -15z m37 -5 c3 -11 9 -17 14 -15 4 3
6 13 3 23 -5 14 -3 14 10 -2 12 -16 13 -22 3 -28 -19 -12 -23 -10 -41 17 -10
15 -12 25 -5 25 6 0 13 -9 16 -20z m350 -12 c-3 -7 -5 -2 -5 12 0 14 2 19 5
13 2 -7 2 -19 0 -25z m46 25 c-7 -2 -19 -2 -25 0 -7 3 -2 5 12 5 14 0 19 -2
13 -5z m67 -19 c0 -8 -8 -13 -20 -11 -24 4 -34 13 -26 25 9 14 46 2 46 -14z
m85 17 c3 -5 1 -12 -5 -16 -5 -3 -10 1 -10 9 0 18 6 21 15 7z m35 -5 c0 -8 -4
-18 -10 -21 -5 -3 -10 3 -10 14 0 12 5 21 10 21 6 0 10 -6 10 -14z m-830 -22
c0 -2 -11 -4 -25 -4 -14 0 -25 4 -25 9 0 4 11 6 25 3 14 -2 25 -6 25 -8z
m2200 -204 c0 -13 -7 -20 -20 -20 -19 0 -27 20 -13 33 13 14 33 6 33 -13z
m-4295 -115 c27 -26 32 -70 12 -96 -48 -63 -137 -36 -137 42 0 70 77 103 125
54z m4550 -101 c8 -4 23 -20 31 -36 23 -45 11 -94 -29 -118 -43 -27 -69 -25
-106 6 -63 52 -28 154 53 154 19 0 42 -3 51 -6z m-5155 -179 c31 -38 -27 -96
-65 -65 -18 15 -20 51 -3 68 17 17 53 15 68 -3z m1590 -5 c12 -23 7 -25 -22
-9 -29 15 -53 -10 -44 -45 7 -27 39 -36 51 -15 4 6 13 8 21 5 9 -3 14 2 14 15
0 11 10 24 25 31 34 15 57 -5 53 -46 -2 -26 -8 -32 -31 -34 -16 -2 -34 1 -41
7 -10 8 -21 7 -42 -4 -24 -12 -32 -12 -49 -1 -26 17 -32 77 -10 100 23 22 62
20 75 -4z m520 4 c0 -8 -4 -12 -10 -9 -5 3 -10 10 -10 16 0 5 5 9 10 9 6 0 10
-7 10 -16z m426 1 c-4 -11 1 -15 19 -15 18 0 26 -7 31 -25 7 -30 20 -32 27 -5
3 11 10 20 15 20 11 0 -13 -85 -31 -107 -16 -22 -27 -14 -21 15 6 30 -10 82
-26 82 -5 0 -10 -11 -10 -25 0 -14 5 -25 10 -25 6 0 10 -4 10 -10 0 -5 -9 -10
-20 -10 -13 0 -22 9 -26 25 -8 32 4 95 18 95 5 0 8 -7 4 -15z m224 -51 l0 -55
-37 3 c-36 3 -38 5 -38 37 0 23 6 37 20 45 11 6 24 17 28 24 15 24 27 1 27
-54z m280 6 c0 -33 -4 -60 -10 -60 -6 0 -10 27 -10 60 0 33 4 60 10 60 6 0 10
-27 10 -60z m-886 34 c3 -8 10 -13 15 -10 5 4 18 -6 29 -21 l19 -26 7 27 c4
15 11 24 16 21 11 -7 -24 -105 -42 -116 -6 -4 -16 -5 -21 -2 -5 3 -3 9 4 14
15 9 1 79 -16 82 -15 3 -18 -45 -3 -54 9 -6 7 -9 -8 -9 -18 0 -23 7 -26 38 -7
59 10 97 26 56z m174 -31 c-6 -7 -8 -24 -6 -38 3 -16 1 -25 -7 -25 -16 0 -27
81 -13 97 8 11 13 10 23 -4 9 -13 10 -22 3 -30z m-455 6 c12 -19 1 -72 -13
-64 -6 3 -10 17 -10 30 0 13 -4 27 -10 30 -6 4 -10 -8 -10 -29 0 -25 -4 -36
-15 -36 -11 0 -15 11 -15 36 0 21 -4 33 -10 29 -5 -3 -10 -19 -10 -36 0 -39
-18 -37 -22 3 -4 46 -28 49 -28 4 0 -20 -4 -36 -10 -36 -5 0 -10 6 -10 14 0 7
-3 27 -6 43 l-6 30 82 -1 c64 -1 85 -5 93 -17z m48 -10 c7 -23 7 -23 8 -2 2
39 18 34 25 -7 9 -57 36 -47 36 13 0 17 6 22 28 22 36 0 65 -23 56 -44 -3 -9
-7 -21 -8 -28 -4 -25 -16 -26 -16 -2 0 14 -6 34 -14 44 -13 19 -15 18 -21 -17
-9 -46 -49 -60 -77 -26 -15 16 -18 17 -18 4 0 -9 -6 -16 -14 -16 -9 0 -12 7
-9 19 3 10 0 28 -6 39 -6 11 -7 22 -4 26 12 11 27 0 34 -25z m567 19 c17 -17
15 -66 -4 -76 -19 -11 -54 -4 -54 10 0 5 9 7 19 3 11 -3 22 -1 26 5 4 6 -4 10
-17 10 -13 0 -30 6 -37 13 -11 10 -13 10 -7 0 5 -9 -3 -13 -26 -14 -30 -2 -31
-2 -5 -6 33 -5 36 -23 3 -23 -32 0 -50 24 -42 55 5 19 13 25 35 25 16 0 31 -5
33 -12 3 -8 11 -7 28 5 29 20 32 21 48 5z m349 -18 c17 -34 0 -62 -35 -58 -22
2 -28 9 -30 33 -3 19 2 33 14 42 23 17 36 12 51 -17z m37 3 l14 -28 11 28 c16
42 31 23 16 -20 -18 -52 -41 -54 -54 -6 -17 61 -12 72 13 26z m120 5 c19 -27
11 -41 -20 -35 -13 2 -24 0 -24 -4 0 -5 12 -9 26 -9 14 0 23 -4 19 -10 -3 -5
-17 -10 -30 -10 -29 0 -43 37 -25 69 14 27 35 27 54 -1z m124 10 c16 -16 15
-50 -2 -73 -13 -18 -17 -18 -40 -6 -37 20 -34 69 4 84 23 8 25 8 38 -5z m91
-5 c9 -17 10 -17 29 0 29 27 52 12 52 -34 0 -35 -3 -39 -25 -39 -17 0 -29 7
-35 23 -6 16 -9 18 -9 5 -1 -18 -34 -42 -45 -31 -3 3 -6 -4 -6 -16 0 -14 -5
-21 -12 -19 -13 5 -23 89 -14 114 8 20 53 17 65 -3z m156 1 c22 -22 14 -38
-21 -45 l-29 -7 34 -1 c27 -1 31 -3 22 -15 -8 -10 -21 -12 -39 -7 -34 9 -44
58 -16 78 23 17 29 16 49 -3z m61 -10 c-10 -7 -15 -17 -12 -22 8 -13 -3 -42
-15 -42 -5 0 -9 18 -9 39 0 29 4 41 18 44 27 6 37 -5 18 -19z m82 7 c3 -9 -2
-11 -17 -6 -11 3 -21 2 -21 -3 0 -6 11 -13 25 -16 28 -7 33 -31 9 -44 -18 -10
-54 -5 -54 8 0 5 9 6 20 3 11 -3 20 0 20 6 0 6 -9 11 -19 11 -24 0 -35 28 -20
47 15 17 51 13 57 -6z m-1396 -31 c2 -28 0 -40 -9 -40 -8 0 -13 14 -13 40 0
22 4 40 9 40 5 0 11 -18 13 -40z m2642 -126 c42 -41 -5 -107 -58 -82 -20 9
-26 19 -26 44 0 49 51 72 84 38z m-3347 -200 c-3 -3 -12 -4 -19 -1 -8 3 -5 6
6 6 11 1 17 -2 13 -5z m-896 -14 c12 -7 19 -21 19 -40 0 -23 -5 -31 -25 -36
-47 -12 -73 36 -39 70 18 19 20 19 45 6z m1126 -22 c-3 -7 -5 -2 -5 12 0 14 2
19 5 13 2 -7 2 -19 0 -25z m103 22 c0 -5 -5 -10 -11 -10 -5 0 -7 5 -4 10 3 6
8 10 11 10 2 0 4 -4 4 -10z m780 -10 c0 -11 -4 -20 -8 -20 -4 0 -8 9 -9 20 -1
11 2 20 8 20 5 0 9 -9 9 -20z m433 -5 c-7 -21 -13 -19 -13 6 0 11 4 18 10 14
5 -3 7 -12 3 -20z m150 5 c-3 -12 -8 -19 -11 -16 -5 6 5 36 12 36 2 0 2 -9 -1
-20z m638 -7 c-12 -20 -14 -14 -5 12 4 9 9 14 11 11 3 -2 0 -13 -6 -23z
m-2287 2 c-4 -8 -8 -15 -10 -15 -2 0 -4 7 -4 15 0 8 4 15 10 15 5 0 7 -7 4
-15z m23 -7 c-3 -8 -6 -5 -6 6 -1 11 2 17 5 13 3 -3 4 -12 1 -19z m107 7 c-6
16 -4 18 6 8 7 -6 9 -16 6 -22 -9 -14 -36 -2 -36 17 0 13 3 12 15 -4 15 -19
15 -19 9 1z m240 -1 c3 -8 2 -12 -4 -9 -6 3 -10 10 -10 16 0 14 7 11 14 -7z
m23 -16 c-3 -7 -5 -2 -5 12 0 14 2 19 5 13 2 -7 2 -19 0 -25z m54 23 c-8 -5
-10 -14 -6 -22 6 -11 5 -11 -5 -2 -14 12 -6 33 13 33 8 0 7 -3 -2 -9z m54 -1
c4 -6 -1 -7 -11 -3 -12 4 -15 3 -10 -5 4 -7 2 -12 -3 -12 -12 0 -14 13 -4 23
9 10 21 9 28 -3z m22 -12 c-3 -8 -6 -5 -6 6 -1 11 2 17 5 13 3 -3 4 -12 1 -19z
m71 -3 c-3 -3 -9 2 -12 12 -6 14 -5 15 5 6 7 -7 10 -15 7 -18z m39 3 c-3 -8
-6 -5 -6 6 -1 11 2 17 5 13 3 -3 4 -12 1 -19z m87 14 c-5 -4 -12 -11 -15 -15
-3 -5 -9 -2 -12 5 -3 9 3 14 15 15 11 1 16 -1 12 -5z m69 -7 c-3 -9 -8 -14
-10 -11 -3 3 -2 9 2 15 9 16 15 13 8 -4z m90 -5 c-3 -12 -8 -19 -11 -16 -5 6
5 36 12 36 2 0 2 -9 -1 -20z m24 -2 c-3 -8 -6 -5 -6 6 -1 11 2 17 5 13 3 -3 4
-12 1 -19z m216 9 c-3 -4 -11 -6 -19 -3 -8 3 -14 0 -14 -6 0 -6 -3 -9 -6 -5
-10 10 6 26 26 24 10 -1 16 -5 13 -10z m30 -2 c-3 -9 -8 -14 -10 -11 -3 3 -2
9 2 15 9 16 15 13 8 -4z m37 -7 c0 -12 -3 -18 -7 -14 -11 10 -12 36 -2 36 5 0
9 -10 9 -22z m54 7 c3 -8 1 -15 -4 -15 -6 0 -10 7 -10 15 0 8 2 15 4 15 2 0 6
-7 10 -15z m39 -2 c-3 -7 -9 -10 -14 -7 -14 8 -11 21 5 21 8 0 12 -6 9 -14z
m54 -5 c-3 -8 -6 -5 -6 6 -1 11 2 17 5 13 3 -3 4 -12 1 -19z m77 7 c-4 -8 -2
-15 4 -15 6 0 13 6 15 13 4 9 6 9 6 0 1 -17 -19 -27 -31 -15 -6 6 -7 15 -4 21
10 16 16 13 10 -4z m162 4 c4 -8 9 -8 17 0 6 6 16 11 21 11 6 0 0 -7 -13 -16
-19 -14 -25 -14 -32 -3 -8 12 -11 12 -19 -1 -5 -8 -10 -10 -10 -4 0 23 24 32
36 13z m121 -11 c-3 -8 -6 -5 -6 6 -1 11 2 17 5 13 3 -3 4 -12 1 -19z m36 5
c-3 -7 -9 -13 -14 -13 -5 0 -9 6 -9 13 0 8 6 14 14 14 8 0 12 -6 9 -14z m30 2
c-3 -9 -8 -14 -10 -11 -3 3 -2 9 2 15 9 16 15 13 8 -4z m58 6 c7 11 9 10 9 -4
0 -20 -22 -19 -26 1 -2 9 -1 9 3 1 4 -8 8 -7 14 2z m59 -1 c0 -5 -2 -10 -4
-10 -3 0 -8 5 -11 10 -3 6 -1 10 4 10 6 0 11 -4 11 -10z m27 -5 c0 -8 -4 -12
-9 -9 -5 3 -6 10 -3 15 9 13 12 11 12 -6z m61 -10 c-3 -3 -9 2 -12 12 -6 14
-5 15 5 6 7 -7 10 -15 7 -18z m116 10 c-4 -8 -8 -15 -10 -15 -2 0 -4 7 -4 15
0 8 4 15 10 15 5 0 7 -7 4 -15z m146 4 c0 10 3 11 14 2 11 -9 15 -9 19 1 4 9
6 7 6 -4 1 -22 -51 -20 -56 2 -4 13 -3 13 6 0 8 -12 11 -12 11 -1z m-1663 -21
c-3 -8 -6 -5 -6 6 -1 11 2 17 5 13 3 -3 4 -12 1 -19z m1106 7 c-3 -9 -8 -14
-10 -11 -3 3 -2 9 2 15 9 16 15 13 8 -4z m344 -7 c-3 -8 -6 -5 -6 6 -1 11 2
17 5 13 3 -3 4 -12 1 -19z m104 -1 c-10 -9 -11 -8 -5 6 3 10 9 15 12 12 3 -3
0 -11 -7 -18z m-1937 -72 c-4 -8 -10 -13 -14 -10 -4 3 -10 -2 -14 -10 -3 -8
-16 -15 -28 -14 -13 0 -17 3 -11 6 7 2 15 4 18 4 3 -1 14 8 25 19 24 24 31 25
24 5z m1193 -17 c-3 -7 -5 -2 -5 12 0 14 2 19 5 13 2 -7 2 -19 0 -25z m33 1
c0 -10 -3 -19 -7 -19 -5 0 -8 11 -8 24 0 13 3 22 8 19 4 -2 7 -13 7 -24z m607
-1 c-3 -7 -5 -2 -5 12 0 14 2 19 5 13 2 -7 2 -19 0 -25z m-1810 -10 c-3 -7 -5
-2 -5 12 0 14 2 19 5 13 2 -7 2 -19 0 -25z m75 0 c-8 -8 -9 -4 -5 13 4 13 8
18 11 10 2 -7 -1 -18 -6 -23z m245 0 c-3 -7 -5 -2 -5 12 0 14 2 19 5 13 2 -7
2 -19 0 -25z m33 10 c0 -18 -2 -20 -9 -8 -6 8 -7 18 -5 22 9 14 14 9 14 -14z
m141 7 c5 4 6 -1 2 -10 -5 -13 -7 -14 -14 -3 -5 7 -8 18 -8 23 0 6 3 4 6 -3 2
-6 9 -10 14 -7z m49 -22 c0 -20 -16 -8 -23 17 -4 17 -3 19 9 9 8 -6 14 -18 14
-26z m117 5 c-3 -7 -5 -2 -5 12 0 14 2 19 5 13 2 -7 2 -19 0 -25z m50 0 c-3
-7 -5 -2 -5 12 0 14 2 19 5 13 2 -7 2 -19 0 -25z m210 10 c-3 -8 -6 -5 -6 6
-1 11 2 17 5 13 3 -3 4 -12 1 -19z m30 0 c-3 -8 -6 -5 -6 6 -1 11 2 17 5 13 3
-3 4 -12 1 -19z m70 -1 c2 -19 2 -19 -12 -1 -13 18 -14 18 -15 2 0 -10 -7 -18
-15 -18 -8 0 -15 8 -15 18 0 13 2 14 9 4 7 -11 9 -11 14 0 8 22 33 18 34 -5z
m428 15 c-3 -3 1 -12 7 -19 10 -12 8 -14 -8 -11 -34 6 -42 35 -9 35 8 0 13 -3
10 -5z m195 -12 c0 -11 -2 -20 -4 -20 -2 0 -6 9 -9 20 -3 11 -1 20 4 20 5 0 9
-9 9 -20z m97 -2 c-3 -8 -6 -5 -6 6 -1 11 2 17 5 13 3 -3 4 -12 1 -19z m140
16 c-3 -4 -2 -15 3 -24 8 -15 6 -17 -9 -13 -20 5 -18 43 2 43 6 0 7 -3 4 -6z
m-1856 -27 c-10 -9 -11 -8 -5 6 3 10 9 15 12 12 3 -3 0 -11 -7 -18z m26 1 c-3
-8 -6 -5 -6 6 -1 11 2 17 5 13 3 -3 4 -12 1 -19z m90 -10 c-3 -7 -5 -2 -5 12
0 14 2 19 5 13 2 -7 2 -19 0 -25z m40 10 c-3 -8 -6 -5 -6 6 -1 11 2 17 5 13 3
-3 4 -12 1 -19z m120 0 c-3 -8 -6 -5 -6 6 -1 11 2 17 5 13 3 -3 4 -12 1 -19z
m138 12 c-3 -5 -2 -10 4 -10 5 0 12 6 14 13 3 7 6 4 6 -6 1 -12 -5 -17 -16
-15 -19 3 -31 28 -13 28 6 0 8 -4 5 -10z m156 -10 c6 0 7 5 3 12 -4 7 -3 8 4
4 19 -11 14 -26 -8 -26 -13 0 -20 6 -19 18 0 10 3 12 6 5 2 -7 9 -13 14 -13z
m36 -2 c-3 -8 -6 -5 -6 6 -1 11 2 17 5 13 3 -3 4 -12 1 -19z m132 -9 c-19 -11
-24 -3 -8 14 8 9 16 11 18 5 2 -6 -3 -14 -10 -19z m35 16 c3 -8 1 -15 -4 -15
-6 0 -10 7 -10 15 0 8 2 15 4 15 2 0 6 -7 10 -15z m23 -7 c-3 -8 -6 -5 -6 6
-1 11 2 17 5 13 3 -3 4 -12 1 -19z m30 7 c0 -8 -4 -12 -9 -9 -4 3 -8 9 -8 15
0 5 4 9 8 9 5 0 9 -7 9 -15z m33 0 c0 -8 -4 -15 -10 -15 -5 0 -7 7 -4 15 4 8
8 15 10 15 2 0 4 -7 4 -15z m250 0 c0 -9 -9 -15 -22 -14 -17 1 -19 2 -5 6 9 2
17 9 17 14 0 5 2 9 5 9 3 0 5 -7 5 -15z m87 -7 c-3 -8 -6 -5 -6 6 -1 11 2 17
5 13 3 -3 4 -12 1 -19z m30 0 c-3 -8 -6 -5 -6 6 -1 11 2 17 5 13 3 -3 4 -12 1
-19z m113 7 c0 -8 -7 -15 -15 -15 -13 0 -14 3 -3 15 16 18 18 18 18 0z m165
-8 c15 -4 14 -5 -7 -6 -21 -1 -28 4 -28 17 0 11 3 13 8 6 4 -7 16 -14 27 -17z
m181 7 c15 6 16 4 7 -5 -14 -14 -43 -5 -43 13 0 10 3 9 9 -1 6 -9 16 -11 27
-7z m-1462 -3 c3 -5 0 -11 -7 -14 -8 -3 -14 1 -14 9 0 16 13 19 21 5z m158
-13 c-7 -7 -12 -8 -12 -2 0 6 3 14 7 17 3 4 9 5 12 2 2 -3 -1 -11 -7 -17z
m648 2 c0 -5 -4 -10 -10 -10 -5 0 -10 5 -10 10 0 6 5 10 10 10 6 0 10 -4 10
-10z m54 -226 c13 -5 16 -23 16 -90 l0 -84 -509 0 c-455 0 -510 2 -515 16 -3
9 -6 44 -6 79 0 50 4 66 18 74 18 11 968 16 996 5z m298 -4 l159 0 -3 -82 -3
-83 -193 -3 c-221 -3 -206 -10 -207 96 0 71 12 86 59 77 16 -3 100 -5 188 -5z
m1422 -762 c14 -20 16 -98 16 -644 0 -597 -1 -623 -19 -645 l-19 -24 -516 0
c-515 0 -515 0 -537 22 l-22 21 2 624 c2 531 4 626 17 645 l14 23 525 0 524 0
15 -22z"/>
<path d="M4600 4607 c0 -10 -18 -13 -67 -12 -38 0 -80 -2 -95 -6 -21 -6 -28
-4 -28 7 0 8 -7 14 -15 14 -9 0 -15 -9 -15 -25 0 -24 2 -24 58 -22 31 1 60 7
65 12 4 6 13 3 21 -8 9 -12 16 -14 21 -8 3 6 19 11 36 11 24 0 29 4 29 25 0
14 -2 25 -5 25 -3 0 -5 -6 -5 -13z"/>
<path d="M4620 4582 c0 -12 7 -17 23 -17 37 2 39 30 2 33 -18 1 -25 -3 -25
-16z"/>
<path d="M4755 4590 c-3 -5 -2 -10 4 -10 5 0 13 5 16 10 3 6 2 10 -4 10 -5 0
-13 -4 -16 -10z"/>
<path d="M2204 3925 c-4 -8 0 -22 7 -31 11 -13 14 -13 21 0 9 16 1 46 -13 46
-5 0 -12 -7 -15 -15z"/>
<path d="M3274 3926 c-6 -17 2 -36 17 -36 12 0 12 37 -1 45 -6 3 -13 -1 -16
-9z"/>
<path d="M2940 3930 c0 -5 7 -10 16 -10 8 0 12 5 9 10 -3 6 -10 10 -16 10 -5
0 -9 -4 -9 -10z"/>
<path d="M3020 3930 c-12 -8 -10 -10 8 -10 13 0 20 4 17 10 -7 12 -6 12 -25 0z"/>
<path d="M3365 3930 c-3 -5 1 -10 10 -10 9 0 13 5 10 10 -3 6 -8 10 -10 10 -2
0 -7 -4 -10 -10z"/>
<path d="M3368 3888 c9 -9 15 -9 24 0 9 9 7 12 -12 12 -19 0 -21 -3 -12 -12z"/>
<path d="M3528 3933 c7 -3 16 -2 19 1 4 3 -2 6 -13 5 -11 0 -14 -3 -6 -6z"/>
<path d="M3646 3923 c-4 -9 0 -23 8 -32 14 -13 16 -13 22 2 7 20 -1 47 -15 47
-5 0 -12 -8 -15 -17z"/>
<path d="M3740 3915 c0 -17 5 -25 13 -22 6 2 12 12 12 22 0 10 -6 20 -12 23
-8 2 -13 -6 -13 -23z"/>
<path d="M3825 3930 c-3 -5 -1 -10 4 -10 6 0 11 5 11 10 0 6 -2 10 -4 10 -3 0
-8 -4 -11 -10z"/>
<path d="M3810 3899 c0 -5 9 -9 20 -9 11 0 20 2 20 4 0 2 -9 6 -20 9 -11 3
-20 1 -20 -4z"/>
<path d="M3895 3930 c-3 -5 1 -10 9 -10 9 0 16 5 16 10 0 6 -4 10 -9 10 -6 0
-13 -4 -16 -10z"/>
<path d="M3467 3134 c-3 -3 -1 -15 6 -25 13 -21 47 -25 63 -9 8 8 15 6 23 -4
17 -20 51 -3 51 25 0 13 -4 18 -12 13 -6 -4 -26 -7 -45 -6 -25 1 -33 -3 -34
-16 0 -10 -3 -12 -6 -4 -2 6 -12 12 -21 12 -15 0 -15 2 -2 10 13 8 13 10 -1
10 -9 0 -18 -3 -22 -6z"/>
<path d="M3640 3115 c7 -8 17 -15 22 -15 6 0 5 7 -2 15 -7 8 -17 15 -22 15 -6
0 -5 -7 2 -15z"/>
<path d="M3690 3115 c0 -8 5 -15 10 -15 6 0 10 7 10 15 0 8 -4 15 -10 15 -5 0
-10 -7 -10 -15z"/>
<path d="M4180 2280 c0 -12 4 -19 9 -16 5 4 12 0 14 -6 4 -10 6 -10 6 0 1 7
-6 20 -14 28 -13 14 -15 13 -15 -6z"/>
<path d="M4081 2272 c-1 -30 32 -27 37 3 3 20 3 20 -9 0 -12 -19 -12 -19 -20
0 -7 18 -8 18 -8 -3z"/>
<path d="M4143 2283 c-16 -6 -17 -33 -2 -33 5 0 8 4 4 9 -3 5 -1 12 4 15 5 4
12 -2 14 -11 4 -16 5 -16 6 -1 1 19 -9 27 -26 21z"/>
<path d="M4254 2275 c-4 -8 -10 -15 -16 -15 -5 0 -6 5 -2 12 4 7 3 8 -5 4 -17
-11 -3 -26 25 -26 17 0 24 5 24 20 0 23 -18 27 -26 5z"/>
<path d="M4295 2280 c-3 -5 -2 -10 4 -10 5 0 13 5 16 10 3 6 2 10 -4 10 -5 0
-13 -4 -16 -10z"/>
<path d="M4298 2253 c7 -3 16 -2 19 1 4 3 -2 6 -13 5 -11 0 -14 -3 -6 -6z"/>
<path d="M4070 1533 c0 -15 15 -28 35 -30 15 -1 21 4 22 19 2 15 -1 18 -9 10
-8 -8 -17 -8 -30 -1 -10 5 -18 6 -18 2z"/>
<path d="M4337 1533 c-14 -13 -7 -21 13 -16 14 4 20 1 18 -8 -2 -9 7 -15 22
-16 14 -1 37 -4 52 -6 19 -3 28 1 31 14 6 24 27 25 28 2 0 -15 2 -15 8 2 11
27 4 37 -18 25 -10 -5 -21 -6 -25 -3 -3 3 -6 2 -6 -3 0 -13 -80 -8 -94 6 -12
12 -20 13 -29 3z"/>
<path d="M4148 1513 c-6 -8 -8 -16 -4 -20 3 -3 6 -1 6 7 0 10 3 10 14 1 11
-10 15 -8 19 6 4 17 5 17 6 1 1 -19 31 -25 31 -7 0 8 5 8 15 -1 10 -9 15 -9
15 -1 0 8 6 8 20 -1 15 -10 22 -10 32 0 19 19 4 24 -72 26 -48 1 -75 -3 -82
-11z"/>
<path d="M4523 1516 c-9 -13 20 -26 33 -15 9 7 14 5 17 -8 4 -16 5 -16 6 2 1
12 4 16 9 9 13 -21 52 -27 58 -9 4 9 4 18 1 22 -10 9 -118 9 -124 -1z m107
-16 c0 -5 -2 -10 -4 -10 -3 0 -8 5 -11 10 -3 6 -1 10 4 10 6 0 11 -4 11 -10z"/>
<path d="M4080 1395 c0 -16 7 -20 40 -22 29 -2 40 1 40 12 0 9 -6 12 -16 8 -9
-3 -20 0 -25 8 -7 11 -9 10 -9 -5 0 -20 0 -20 -15 0 -14 19 -14 19 -15 -1z"/>
<path d="M4263 1390 c1 -11 5 -20 9 -20 4 0 8 9 8 20 0 11 -4 20 -9 20 -6 0
-9 -9 -8 -20z"/>
<path d="M4170 1384 c0 -14 28 -26 41 -18 19 11 8 32 -16 30 -14 0 -25 -6 -25
-12z"/>
<path d="M4074 1286 c-12 -48 3 -66 52 -66 l45 0 -3 43 c-3 42 -3 42 -45 45
-38 3 -43 0 -49 -22z m68 -17 c-5 -11 -12 -21 -17 -22 -16 -1 -18 35 -4 44 19
12 29 1 21 -22z"/>
<path d="M4194 1286 c-11 -46 3 -66 47 -66 l39 0 0 45 0 45 -40 0 c-34 0 -41
-4 -46 -24z m58 -15 c-8 -4 -13 -12 -12 -17 1 -5 -3 -10 -9 -12 -6 -2 -11 6
-11 17 0 15 6 21 23 21 16 0 18 -3 9 -9z"/>
<path d="M4310 1294 c0 -9 7 -14 17 -12 25 5 28 28 4 28 -12 0 -21 -6 -21 -16z"/>
<path d="M4360 1306 c0 -2 7 -6 15 -10 8 -3 15 -1 15 4 0 6 -7 10 -15 10 -8 0
-15 -2 -15 -4z"/>
<path d="M4420 1266 c0 -37 3 -45 23 -50 53 -13 86 18 73 70 -6 21 -12 24 -51
24 l-45 0 0 -44z m69 15 c17 -11 6 -31 -17 -30 -11 0 -12 3 -4 6 6 2 12 9 12
14 0 4 -7 6 -15 3 -8 -4 -15 -1 -15 5 0 13 20 14 39 2z"/>
<path d="M4311 1254 c0 -11 3 -14 6 -6 3 7 2 16 -1 19 -3 4 -6 -2 -5 -13z"/>
<path d="M1717 2243 c-8 -8 -9 -63 -1 -63 3 0 12 6 20 14 7 8 19 16 26 18 18
6 1 38 -20 38 -10 0 -22 -3 -25 -7z m33 -11 c0 -13 -12 -22 -22 -16 -10 6 -1
24 13 24 5 0 9 -4 9 -8z"/>
<path d="M2020 2242 c0 -4 -10 -13 -21 -21 -17 -10 -23 -10 -29 0 -11 17 -40
3 -40 -19 0 -17 8 -19 55 -20 l55 0 0 34 c0 19 -4 34 -10 34 -5 0 -10 -3 -10
-8z m-50 -43 c0 -5 -7 -9 -15 -9 -15 0 -20 12 -9 23 8 8 24 -1 24 -14z m46 -6
c-10 -10 -19 5 -10 18 6 11 8 11 12 0 2 -7 1 -15 -2 -18z"/>
<path d="M2169 2239 c-1 -2 -2 -16 -3 -31 -2 -24 2 -28 26 -28 15 0 28 5 28
11 0 6 -9 8 -22 4 -13 -4 -18 -3 -11 2 8 6 8 13 -3 27 -8 11 -15 18 -15 15z"/>
<path d="M1780 2206 c0 -31 6 -34 13 -6 3 11 1 23 -4 26 -5 3 -9 -6 -9 -20z"/>
<path d="M1814 2215 c-9 -22 22 -53 37 -38 15 15 7 47 -14 51 -9 2 -20 -4 -23
-13z m36 -16 c0 -5 -7 -9 -15 -9 -15 0 -20 12 -9 23 8 8 24 -1 24 -14z"/>
<path d="M1874 2217 c-2 -7 -1 -23 4 -36 l8 -22 18 20 c15 17 16 23 6 36 -15
18 -29 19 -36 2z"/>
<path d="M2080 2204 c0 -21 3 -25 11 -17 9 9 15 8 26 -3 8 -8 20 -11 26 -7 8
5 6 9 -5 11 -21 4 -23 13 -6 30 9 9 9 12 1 12 -7 0 -15 -5 -18 -10 -5 -8 -11
-7 -21 1 -11 9 -14 6 -14 -17z"/>
<path d="M2195 2220 c3 -5 11 -10 16 -10 6 0 7 5 4 10 -3 6 -11 10 -16 10 -6
0 -7 -4 -4 -10z"/>
<path d="M2050 2206 c0 -8 5 -18 10 -21 6 -3 10 3 10 14 0 12 -4 21 -10 21 -5
0 -10 -6 -10 -14z"/>
<path d="M1717 2083 c-23 -22 14 -68 42 -53 12 6 22 5 30 -3 10 -9 15 -8 25 5
10 13 15 15 24 6 9 -9 12 -8 12 5 0 9 5 17 11 17 6 0 8 -8 5 -17 -5 -15 -4
-15 9 1 15 20 15 20 15 0 1 -19 1 -19 15 0 15 20 15 20 15 0 0 -16 2 -17 10
-4 7 11 10 11 10 2 0 -7 5 -10 10 -7 6 3 10 12 10 19 0 10 -22 14 -87 14 -75
1 -90 -2 -106 -19 -15 -16 -22 -18 -33 -8 -20 16 -17 28 9 39 21 8 21 9 1 9
-11 1 -24 -2 -27 -6z m93 -32 c0 -6 -4 -13 -10 -16 -5 -3 -10 1 -10 9 0 9 5
16 10 16 6 0 10 -4 10 -9z"/>
<path d="M2151 2063 c6 -18 15 -33 20 -33 11 0 24 49 15 57 -3 4 -6 -5 -6 -18
l0 -24 -20 25 -20 25 11 -32z"/>
<path d="M2253 2060 c-1 -17 2 -30 8 -30 6 0 7 5 4 10 -3 6 3 10 15 10 12 0
18 5 15 10 -4 6 -11 8 -16 4 -5 -3 -8 0 -7 7 2 6 -1 13 -7 15 -5 2 -11 -10
-12 -26z"/>
<path d="M2330 2058 c0 -18 4 -28 8 -22 4 6 14 14 22 17 11 4 10 6 -5 7 -20 1
-20 1 -1 15 19 15 19 15 -2 15 -18 0 -22 -6 -22 -32z"/>
<path d="M2025 2070 c-4 -6 -11 -7 -17 -4 -8 5 -9 1 -5 -10 4 -10 7 -20 7 -22
0 -2 5 -4 10 -4 6 0 10 10 11 23 1 21 1 21 9 -3 l8 -25 1 28 c1 27 -12 36 -24
17z"/>
<path d="M2067 2073 c-3 -5 -1 -17 4 -28 7 -17 8 -17 8 8 1 27 -4 34 -12 20z"/>
<path d="M2097 2073 c-12 -12 -7 -43 7 -43 9 0 12 8 8 25 -5 27 -6 28 -15 18z"/>
<path d="M2212 2068 c-15 -15 -16 -38 -2 -38 6 0 10 8 11 18 0 14 2 14 9 -3 8
-18 9 -17 9 8 1 29 -8 34 -27 15z"/>
<path d="M2527 2073 c-4 -3 -7 -16 -6 -27 0 -21 1 -21 9 -1 7 17 9 17 9 3 1
-21 21 -25 21 -4 0 17 -24 38 -33 29z"/>
<path d="M2567 2055 c3 -14 10 -25 15 -25 13 0 6 43 -8 47 -7 2 -10 -6 -7 -22z"/>
<path d="M2388 2048 c5 -19 7 -20 10 -5 2 9 8 17 14 17 5 0 8 -7 4 -15 -3 -8
-1 -15 3 -15 8 0 21 23 21 36 0 2 -13 4 -29 4 -25 0 -28 -3 -23 -22z"/>
<path d="M2450 2065 c0 -5 5 -17 10 -25 5 -8 10 -10 10 -5 0 6 -5 17 -10 25
-5 8 -10 11 -10 5z"/>
<path d="M2488 2050 c-7 -24 -3 -38 8 -28 3 4 4 17 2 30 l-3 23 -7 -25z"/>
<path d="M1972 2040 c0 -14 2 -19 5 -12 2 6 2 18 0 25 -3 6 -5 1 -5 -13z"/>
<path d="M1725 1690 c-3 -5 1 -10 10 -10 9 0 13 5 10 10 -3 6 -8 10 -10 10 -2
0 -7 -4 -10 -10z"/>
<path d="M1967 1183 c-15 -14 -5 -30 28 -46 43 -21 45 -21 45 -2 0 8 5 15 11
15 6 0 9 -7 6 -15 -4 -8 -2 -17 3 -20 6 -4 10 3 10 14 0 10 3 27 7 36 5 15 3
16 -14 7 -11 -6 -23 -8 -27 -5 -3 3 -6 -4 -6 -16 0 -12 -4 -19 -10 -16 -6 4
-8 11 -4 16 3 6 0 10 -7 8 -27 -3 -40 1 -34 11 4 6 11 7 17 4 7 -4 8 -2 4 4
-8 13 -19 15 -29 5z"/>
<path d="M1710 1155 c0 -29 24 -43 44 -26 10 8 16 9 21 1 3 -5 14 -10 23 -9
11 0 12 3 5 6 -15 5 -17 23 -4 23 5 0 16 -7 24 -15 13 -13 16 -13 21 2 4 9 4
18 1 21 -3 3 -5 0 -5 -8 0 -9 -3 -10 -13 -1 -8 6 -23 12 -35 14 -12 2 -25 6
-28 10 -4 4 -18 7 -31 7 -18 0 -23 -5 -23 -25z m40 -5 c0 -11 -4 -20 -10 -20
-5 0 -10 2 -10 4 0 2 -3 11 -6 20 -4 11 -1 16 10 16 9 0 16 -8 16 -20z"/>
<path d="M1910 1171 c0 -5 5 -13 10 -16 6 -3 10 -2 10 4 0 5 -4 13 -10 16 -5
3 -10 2 -10 -4z"/>
<path d="M1870 1155 c-17 -21 1 -39 29 -30 17 5 19 9 8 26 -14 23 -21 24 -37
4z m24 -10 c3 -8 1 -15 -4 -15 -6 0 -10 7 -10 15 0 8 2 15 4 15 2 0 6 -7 10
-15z"/>
<path d="M2090 1146 c0 -20 5 -26 21 -26 15 0 20 5 17 22 -5 34 -38 37 -38 4z"/>
<path d="M2140 1151 c0 -11 5 -23 11 -26 6 -4 9 0 7 10 -2 10 3 20 10 22 7 3
12 -4 12 -16 0 -14 6 -21 18 -20 10 0 12 3 5 6 -7 2 -13 11 -13 19 0 9 5 12
10 9 6 -3 10 -1 10 4 0 6 -16 11 -35 11 -28 0 -35 -4 -35 -19z"/>
<path d="M2220 1145 c0 -15 6 -25 14 -25 19 0 29 17 16 25 -6 4 -8 11 -5 16 4
5 -1 9 -9 9 -10 0 -16 -9 -16 -25z"/>
<path d="M1780 435 c0 -14 2 -25 4 -25 2 0 6 11 8 25 3 14 1 25 -3 25 -5 0 -9
-11 -9 -25z"/>
<path d="M1853 446 c-24 -6 -43 -16 -43 -23 0 -15 28 -17 50 -3 9 6 17 5 22
-3 10 -16 20 -3 16 20 -3 16 -8 17 -45 9z"/>
</g>
</svg>
